<svg width="329" height="72" viewBox="0 0 329 72" fill="none" xmlns="http://www.w3.org/2000/svg">
<path fill-rule="evenodd" clip-rule="evenodd" d="M172.926 33.3861C185.231 29.1189 187.314 18.0282 185.751 7.84332C185.751 7.481 186.072 7.21933 186.372 7.31998C198.155 13.0968 211.38 25.7172 211.38 44.6378C211.38 59.1503 200.179 71.9719 183.908 71.9719C169.48 72.6362 157.236 61.4046 156.575 46.9123C156.134 37.3112 160.963 28.2333 169.139 23.2414C169.46 23.0401 169.88 23.2414 169.88 23.6038C170.041 25.5562 170.562 30.4473 172.705 33.3861H172.906H172.926Z" fill="url(#paint0_linear_6_15)"/>
<path d="M23.1612 68.4912C19.115 68.4912 15.5106 67.6726 12.348 66.0351C9.18541 64.3509 6.69722 62.0351 4.8834 59.0877C3.11608 56.1403 2.23242 52.7954 2.23242 49.0526C2.23242 45.2632 3.11608 41.9182 4.8834 39.0175C6.69722 36.0702 9.18541 33.7778 12.348 32.1403C15.5106 30.4561 19.115 29.614 23.1612 29.614C27.1143 29.614 30.556 30.4561 33.486 32.1403C36.4161 33.7778 38.5787 36.1403 39.9739 39.2281L31.5327 43.7895C30.556 42.0116 29.3236 40.7018 27.8353 39.8596C26.3936 39.0175 24.8122 38.5965 23.0914 38.5965C21.2311 38.5965 19.5568 39.0175 18.0685 39.8596C16.5802 40.7018 15.3942 41.8947 14.5106 43.4386C13.6735 44.9825 13.2549 46.8538 13.2549 49.0526C13.2549 51.2515 13.6735 53.1228 14.5106 54.6667C15.3942 56.2105 16.5802 57.4035 18.0685 58.2456C19.5568 59.0877 21.2311 59.5088 23.0914 59.5088C24.8122 59.5088 26.3936 59.1112 27.8353 58.3158C29.3236 57.4737 30.556 56.1404 31.5327 54.3158L39.9739 58.9474C38.5787 61.9883 36.4161 64.3509 33.486 66.0351C30.556 67.6726 27.1143 68.4912 23.1612 68.4912ZM46.0356 67.9298V15.8596H56.9186V67.9298H46.0356ZM67.0189 67.9298V30.1754H77.9019V67.9298H67.0189ZM72.4604 24.9123C70.4606 24.9123 68.8327 24.3274 67.577 23.1579C66.3213 21.9883 65.6934 20.538 65.6934 18.807C65.6934 17.0761 66.3213 15.6257 67.577 14.4561C68.8327 13.2865 70.4606 12.7018 72.4604 12.7018C74.4602 12.7018 76.088 13.2632 77.3438 14.386C78.5995 15.462 79.2274 16.8655 79.2274 18.5965C79.2274 20.4211 78.5995 21.9415 77.3438 23.1579C76.1345 24.3274 74.5068 24.9123 72.4604 24.9123ZM136.069 29.614C139.045 29.614 141.672 30.2222 143.952 31.4386C146.277 32.6081 148.09 34.4327 149.394 36.9123C150.741 39.345 151.417 42.4796 151.417 46.3158V67.9298H140.534V48C140.534 44.959 139.906 42.7134 138.65 41.2632C137.394 39.8129 135.627 39.0877 133.348 39.0877C131.766 39.0877 130.348 39.462 129.092 40.2105C127.837 40.9123 126.86 41.9883 126.162 43.4386C125.465 44.8888 125.116 46.7368 125.116 48.9825V67.9298H114.233V48C114.233 44.959 113.605 42.7134 112.349 41.2632C111.14 39.8129 109.396 39.0877 107.117 39.0877C105.536 39.0877 104.117 39.462 102.862 40.2105C101.606 40.9123 100.629 41.9883 99.9316 43.4386C99.234 44.8888 98.8852 46.7368 98.8852 48.9825V67.9298H88.0022V30.1754H98.3968V40.4912L96.4435 37.4737C97.7457 34.9006 99.5828 32.959 101.955 31.6491C104.373 30.2923 107.117 29.614 110.187 29.614C113.628 29.614 116.628 30.5029 119.186 32.2807C121.79 34.0116 123.511 36.6783 124.348 40.2807L120.512 39.2281C121.767 36.2807 123.767 33.9415 126.511 32.2105C129.302 30.4796 132.487 29.614 136.069 29.614ZM235.79 68.4912C231.372 68.4912 227.929 67.3684 225.465 65.1228C223 62.8305 221.768 59.4386 221.768 54.9474V21.8246H232.651V54.807C232.651 56.3976 233.07 57.6375 233.907 58.5263C234.744 59.3684 235.882 59.7895 237.325 59.7895C239.045 59.7895 240.51 59.3217 241.72 58.386L244.65 66.1053C243.534 66.9006 242.185 67.5088 240.604 67.9298C239.069 68.3041 237.465 68.4912 235.79 68.4912ZM215.978 39.4386V31.0175H241.999V39.4386H215.978ZM267.739 68.4912C263.693 68.4912 260.089 67.6726 256.926 66.0351C253.763 64.3509 251.275 62.0351 249.461 59.0877C247.693 56.1403 246.81 52.7954 246.81 49.0526C246.81 45.2632 247.693 41.9182 249.461 39.0175C251.275 36.0702 253.763 33.7778 256.926 32.1403C260.089 30.4561 263.693 29.614 267.739 29.614C271.692 29.614 275.134 30.4561 278.064 32.1403C280.994 33.7778 283.156 36.1403 284.552 39.2281L276.11 43.7895C275.134 42.0116 273.902 40.7018 272.413 39.8596C270.972 39.0175 269.389 38.5965 267.669 38.5965C265.809 38.5965 264.135 39.0175 262.646 39.8596C261.157 40.7018 259.971 41.8947 259.088 43.4386C258.251 44.9825 257.833 46.8538 257.833 49.0526C257.833 51.2515 258.251 53.1228 259.088 54.6667C259.971 56.2105 261.157 57.4035 262.646 58.2456C264.135 59.0877 265.809 59.5088 267.669 59.5088C269.389 59.5088 270.972 59.1112 272.413 58.3158C273.902 57.4737 275.134 56.1404 276.11 54.3158L284.552 58.9474C283.156 61.9883 280.994 64.3509 278.064 66.0351C275.134 67.6726 271.692 68.4912 267.739 68.4912ZM313.426 29.614C316.402 29.614 319.053 30.2222 321.379 31.4386C323.751 32.6081 325.611 34.4327 326.96 36.9123C328.308 39.345 328.983 42.4796 328.983 46.3158V67.9298H318.1V48C318.1 44.959 317.425 42.7134 316.077 41.2632C314.774 39.8129 312.914 39.0877 310.496 39.0877C308.774 39.0877 307.217 39.462 305.822 40.2105C304.473 40.9123 303.403 42.0116 302.613 43.5088C301.868 45.0059 301.497 46.9239 301.497 49.2632V67.9298H290.614V15.8596H301.497V40.6316L299.055 37.4737C300.403 34.9474 302.334 33.0059 304.845 31.6491C307.357 30.2923 310.217 29.614 313.426 29.614Z" fill="#287C01"/>
<defs>
<linearGradient id="paint0_linear_6_15" x1="185.399" y1="28.5554" x2="183.951" y2="71.9996" gradientUnits="userSpaceOnUse">
<stop stop-color="#277B00"/>
<stop offset="1" stop-color="#222121" stop-opacity="0"/>
</linearGradient>
</defs>
</svg>
