<svg width="103" height="53" viewBox="0 0 103 53" fill="none" xmlns="http://www.w3.org/2000/svg">
<rect width="103" height="53" rx="26.5" fill="#287C01"/>
<circle cx="74.2097" cy="27.2098" r="23" transform="rotate(90.5249 74.2097 27.2098)" fill="black"/>
<path d="M76.2391 12.0127C76.448 12.0127 76.6553 12.0127 76.861 12.0127C74.828 13.9017 73.5213 16.4434 73.1679 19.196C72.8145 21.9485 73.4369 24.7379 74.9268 27.0792C76.4166 29.4205 78.6799 31.1657 81.323 32.0115C83.9662 32.8572 86.8221 32.75 89.3944 31.7085C88.4049 34.0893 86.7877 36.1569 84.7152 37.6907C82.6428 39.2245 80.1929 40.167 77.6268 40.4176C75.0607 40.6682 72.4747 40.2175 70.1447 39.1136C67.8147 38.0097 65.828 36.2941 64.3966 34.1496C62.9652 32.0052 62.1427 29.5124 62.017 26.9372C61.8912 24.362 62.4669 21.8009 63.6825 19.5272C64.8982 17.2535 66.7082 15.3524 68.9196 14.0268C71.131 12.7011 73.6608 12.0006 76.2391 12V12.0127Z" fill="black" stroke="#287C01" stroke-width="3.165" stroke-linecap="round" stroke-linejoin="round"/>
<path d="M28.99 38.0675C29.3776 38.0676 29.7517 38.2099 30.0413 38.4674C30.331 38.725 30.516 39.0799 30.5614 39.4649L30.5725 39.65V41.2325C30.572 41.6359 30.4176 42.0238 30.1407 42.3171C29.8638 42.6104 29.4854 42.7869 29.0827 42.8105C28.6801 42.8342 28.2836 42.7032 27.9743 42.4443C27.665 42.1854 27.4662 41.8182 27.4185 41.4177L27.4075 41.2325V39.65C27.4075 39.2303 27.5742 38.8278 27.871 38.531C28.1678 38.2342 28.5703 38.0675 28.99 38.0675Z" fill="black"/>
<path d="M38.9804 34.7601L39.1291 34.8914L40.2369 35.9992C40.5207 36.284 40.6855 36.6661 40.6978 37.068C40.71 37.4698 40.5689 37.8613 40.303 38.1629C40.037 38.4645 39.6663 38.6535 39.2661 38.6916C38.8658 38.7298 38.4661 38.6141 38.148 38.3682L37.9992 38.2368L36.8915 37.1291C36.6184 36.8565 36.4543 36.4935 36.4301 36.1084C36.4059 35.7233 36.5232 35.3426 36.7601 35.0379C36.9969 34.7333 37.3368 34.5256 37.716 34.4541C38.0951 34.3825 38.4874 34.4519 38.819 34.6493L38.9804 34.7601Z" fill="black"/>
<path d="M21.0886 34.8914C21.3611 35.1639 21.5247 35.5265 21.5489 35.911C21.5731 36.2956 21.4561 36.6758 21.2199 36.9803L21.0886 37.1291L19.9808 38.2368C19.6961 38.5206 19.3139 38.6854 18.9121 38.6977C18.5102 38.7099 18.1187 38.5688 17.8171 38.3029C17.5156 38.037 17.3265 37.6662 17.2884 37.266C17.2503 36.8657 17.3659 36.466 17.6118 36.1479L17.7432 35.9992L18.8509 34.8914C19.1477 34.5947 19.5501 34.4281 19.9698 34.4281C20.3894 34.4281 20.7918 34.5947 21.0886 34.8914Z" fill="black"/>
<path d="M16.33 25.4075C16.7333 25.4079 17.1213 25.5624 17.4146 25.8393C17.7079 26.1162 17.8844 26.4946 17.908 26.8973C17.9317 27.2999 17.8007 27.6964 17.5418 28.0057C17.2829 28.315 16.9157 28.5138 16.5151 28.5614L16.33 28.5725H14.7475C14.3441 28.5721 13.9562 28.4176 13.6629 28.1407C13.3696 27.8638 13.1931 27.4854 13.1695 27.0827C13.1458 26.6801 13.2768 26.2836 13.5357 25.9743C13.7946 25.665 14.1618 25.4662 14.5623 25.4186L14.7475 25.4075H16.33Z" fill="black"/>
<path d="M43.2326 25.4075C43.6359 25.4079 44.0239 25.5624 44.3172 25.8393C44.6105 26.1162 44.787 26.4946 44.8106 26.8973C44.8342 27.2999 44.7032 27.6964 44.4444 28.0057C44.1855 28.315 43.8183 28.5138 43.4177 28.5614L43.2326 28.5725H41.6501C41.2467 28.5721 40.8588 28.4176 40.5655 28.1407C40.2722 27.8638 40.0957 27.4854 40.0721 27.0827C40.0484 26.6801 40.1794 26.2836 40.4383 25.9743C40.6972 25.665 41.0644 25.4662 41.4649 25.4186L41.6501 25.4075H43.2326Z" fill="black"/>
<path d="M19.8321 15.6118L19.9808 15.7432L21.0886 16.8509C21.3724 17.1357 21.5372 17.5179 21.5495 17.9197C21.5617 18.3216 21.4206 18.7131 21.1547 19.0146C20.8887 19.3162 20.518 19.5053 20.1178 19.5434C19.7175 19.5815 19.3178 19.4659 18.9997 19.2199L18.8509 19.0886L17.7432 17.9808C17.4711 17.7081 17.3079 17.3456 17.284 16.9611C17.2602 16.5767 17.3774 16.1967 17.6137 15.8925C17.8499 15.5883 18.1891 15.3807 18.5675 15.3086C18.9458 15.2366 19.3375 15.305 19.6691 15.5011L19.8321 15.6118Z" fill="black"/>
<path d="M40.2368 15.7432C40.5093 16.0157 40.6729 16.3782 40.6971 16.7628C40.7213 17.1474 40.6043 17.5276 40.3681 17.8321L40.2368 17.9808L39.129 19.0886C38.8443 19.3724 38.4621 19.5372 38.0602 19.5495C37.6584 19.5617 37.2669 19.4206 36.9653 19.1547C36.6638 18.8887 36.4747 18.518 36.4366 18.1178C36.3985 17.7175 36.5141 17.3178 36.76 16.9997L36.8914 16.8509L37.9991 15.7432C38.2959 15.4465 38.6983 15.2798 39.118 15.2798C39.5376 15.2798 39.94 15.4465 40.2368 15.7432Z" fill="black"/>
<path d="M28.99 11.165C29.3776 11.1651 29.7517 11.3074 30.0413 11.5649C30.331 11.8225 30.516 12.1774 30.5614 12.5624L30.5725 12.7475V14.33C30.572 14.7334 30.4176 15.1213 30.1407 15.4146C29.8638 15.7079 29.4854 15.8844 29.0827 15.908C28.6801 15.9317 28.2836 15.8007 27.9743 15.5418C27.665 15.2829 27.4662 14.9157 27.4185 14.5152L27.4075 14.33V12.7475C27.4075 12.3278 27.5742 11.9253 27.871 11.6285C28.1678 11.3317 28.5703 11.165 28.99 11.165Z" fill="black"/>
<path d="M28.9899 19.0775C30.5402 19.0774 32.0564 19.5328 33.3502 20.387C34.644 21.2413 35.6583 22.4568 36.2671 23.8826C36.876 25.3083 37.0526 26.8816 36.775 28.4068C36.4974 29.9321 35.7778 31.3423 34.7056 32.4621C33.6334 33.5819 32.2559 34.3621 30.7441 34.7057C29.2324 35.0493 27.6529 34.9413 26.2021 34.3949C24.7512 33.8486 23.4927 32.8881 22.5831 31.6327C21.6734 30.3773 21.1526 28.8823 21.0853 27.3334L21.0774 26.99L21.0853 26.6466C21.1738 24.6095 22.0453 22.6853 23.518 21.2751C24.9907 19.8649 26.9509 19.0776 28.9899 19.0775Z" fill="black"/>
</svg>
